<svg width="35" height="35" viewBox="0 0 35 35" fill="none" xmlns="http://www.w3.org/2000/svg">
<path d="M17.5 0C12.7427 0 12.1498 0.0229716 10.288 0.101731C8.41855 0.193618 7.15402 0.483498 6.03825 0.916677C4.88749 1.36736 3.90736 1.96571 2.93927 2.93927C1.96462 3.90736 1.3608 4.88749 0.916677 6.03825C0.483498 7.15402 0.193618 8.41855 0.101731 10.288C0.0175022 12.1509 0 12.7427 0 17.5C0 22.2573 0.0229716 22.8502 0.101731 24.712C0.193618 26.576 0.483498 27.846 0.916677 28.9617C1.36736 30.1125 1.96571 31.0926 2.93927 32.0607C3.90736 33.0354 4.88749 33.6392 6.03825 34.0833C7.15402 34.511 8.42402 34.8064 10.288 34.8983C12.1509 34.9825 12.7427 35 17.5 35C22.2573 35 22.8502 34.977 24.712 34.8983C26.576 34.8064 27.846 34.5099 28.9617 34.0833C30.1125 33.6326 31.0926 33.0343 32.0607 32.0607C33.0354 31.0926 33.6392 30.118 34.0833 28.9617C34.511 27.846 34.8064 26.576 34.8983 24.712C34.9825 22.8491 35 22.2573 35 17.5C35 12.7427 34.977 12.1498 34.8983 10.288C34.8064 8.42402 34.5099 7.14746 34.0833 6.03825C33.6326 4.88749 33.0343 3.90736 32.0607 2.93927C31.0926 1.96462 30.118 1.3608 28.9617 0.916677C27.846 0.483498 26.576 0.193618 24.712 0.101731C22.8491 0.0175022 22.2573 0 17.5 0ZM17.5 3.15039C22.172 3.15039 22.7299 3.17337 24.5764 3.25213C26.2795 3.33198 27.2072 3.61639 27.823 3.85704C28.6445 4.17537 29.2188 4.55166 29.8401 5.16643C30.4494 5.77572 30.8257 6.35658 31.144 7.17808C31.3847 7.79394 31.6691 8.72156 31.749 10.4247C31.8277 12.2712 31.8507 12.8302 31.8507 17.5011C31.8507 22.172 31.8277 22.731 31.7424 24.5774C31.6505 26.2806 31.3661 27.2082 31.1265 27.8241C30.7951 28.6456 30.4254 29.2199 29.815 29.8412C29.1991 30.4505 28.6128 30.8268 27.7978 31.1451C27.1896 31.3858 26.2489 31.6702 24.5392 31.7501C22.6828 31.8288 22.1359 31.8518 17.4519 31.8518C12.7678 31.8518 12.222 31.8288 10.3635 31.7435C8.6603 31.6516 7.72065 31.3672 7.10479 31.1276C6.27344 30.7962 5.70353 30.4265 5.09314 29.8161C4.47728 29.2002 4.08567 28.6139 3.78375 27.7989C3.53872 27.1907 3.25869 26.25 3.1679 24.5403C3.10554 22.7058 3.07601 22.137 3.07601 17.4748C3.07601 12.8149 3.10554 12.245 3.1679 10.3875C3.25869 8.6778 3.53872 7.73925 3.78375 7.12886C4.08567 6.29641 4.47837 5.72759 5.09314 5.11173C5.70243 4.50244 6.27344 4.10864 7.10479 3.80016C7.72065 3.5606 8.63733 3.27619 10.3471 3.19087C12.2034 3.12414 12.7503 3.10008 17.4278 3.10008L17.5 3.15039ZM17.5 8.5181C12.5327 8.5181 8.51591 12.5403 8.51591 17.5022C8.51591 22.4695 12.5381 26.4863 17.5 26.4863C22.4673 26.4863 26.4841 22.4641 26.4841 17.5022C26.4841 12.5348 22.4619 8.5181 17.5 8.5181ZM17.5 23.3359C14.2752 23.3359 11.6663 20.727 11.6663 17.5022C11.6663 14.2774 14.2752 11.6685 17.5 11.6685C20.7248 11.6685 23.3337 14.2774 23.3337 17.5022C23.3337 20.727 20.7248 23.3359 17.5 23.3359ZM28.9464 8.1593C28.9464 9.3221 28.0002 10.2607 26.8429 10.2607C25.6801 10.2607 24.7415 9.32101 24.7415 8.1593C24.7415 7.00306 25.6866 6.06232 26.8429 6.06232C27.9991 6.06232 28.9464 7.00306 28.9464 8.1593Z" fill="white"/>
</svg>
