<svg width="35" height="35" viewBox="0 0 35 35" fill="none" xmlns="http://www.w3.org/2000/svg">
<path d="M25.515 20.9748C25.0764 20.7528 22.9403 19.7105 22.5411 19.5617C22.1419 19.4195 21.852 19.3452 21.5611 19.7837C21.2767 20.2114 20.4389 21.1903 20.183 21.4758C19.927 21.7613 19.6755 21.7831 19.2434 21.5895C18.8048 21.3675 17.4037 20.9114 15.7402 19.4195C14.4408 18.2634 13.5756 16.8394 13.3186 16.4008C13.0627 15.9677 13.2902 15.7227 13.5067 15.5061C13.7058 15.307 13.9453 15.0052 14.1673 14.7427C14.3784 14.4802 14.4462 14.3041 14.6005 14.0197C14.7427 13.7123 14.6694 13.4728 14.5611 13.2562C14.4528 13.0397 13.5811 10.8927 13.2169 10.0373C12.8691 9.18859 12.5048 9.29688 12.2369 9.29688C11.9864 9.27391 11.6955 9.27391 11.4056 9.27391C11.1158 9.27391 10.6422 9.38219 10.243 9.79781C9.84375 10.2364 8.71609 11.2842 8.71609 13.4039C8.71609 15.5291 10.2769 17.5853 10.4934 17.8927C10.7155 18.177 13.5636 22.552 17.9331 24.4322C18.9755 24.8708 19.7848 25.1333 20.417 25.3498C21.4594 25.6802 22.4109 25.6342 23.1623 25.5259C23.9936 25.3892 25.737 24.4716 26.1023 23.4467C26.4731 22.4153 26.4731 21.5611 26.3648 21.3675C26.2566 21.1684 25.9722 21.0602 25.5336 20.8666L25.515 20.9748ZM17.5908 31.7188H17.5678C14.9811 31.7188 12.4239 31.0177 10.1905 29.7073L9.66656 29.3945L4.19781 30.8186L5.66781 25.4975L5.31453 24.9506C3.87297 22.6548 3.10406 20.0058 3.10406 17.2834C3.10406 9.34281 9.60422 2.86562 17.6017 2.86562C21.4758 2.86562 25.1103 4.375 27.8447 7.10938C30.5791 9.82078 32.0884 13.4553 32.0884 17.3064C32.0775 25.2416 25.5828 31.7188 17.5962 31.7188H17.5908ZM29.9239 5.03016C26.5967 1.81672 22.2217 0 17.5678 0C7.96906 0 0.153125 7.78203 0.147656 17.3458C0.147656 20.3995 0.945 23.3789 2.47187 26.0159L0 35L9.24 32.5905C11.7863 33.9631 14.6519 34.6981 17.5689 34.7036H17.5744C27.1786 34.7036 34.9945 26.9216 35 17.3513C35 12.7203 33.1942 8.36172 29.902 5.08594L29.9239 5.03016Z" fill="white"/>
</svg>
