<svg width="35" height="35" viewBox="0 0 35 35" fill="none" xmlns="http://www.w3.org/2000/svg">
<path d="M29.8156 29.8276H24.6389V21.7044C24.6389 19.7673 24.5984 17.278 21.9319 17.278C19.2325 17.278 18.8213 19.3791 18.8213 21.5611V29.8266H13.638V13.1239H18.6167V15.4022H18.6834C19.3791 14.0864 21.0711 12.7028 23.5955 12.7028C28.8466 12.7028 29.8211 16.1602 29.8211 20.6555V29.8266L29.8156 29.8276ZM7.78203 10.8412C6.11187 10.8412 4.77312 9.49047 4.77312 7.82687C4.77312 6.16875 6.11734 4.82016 7.78203 4.82016C9.44672 4.82016 10.7953 6.16875 10.7953 7.82687C10.7953 9.49047 9.44672 10.8412 7.78203 10.8412ZM10.3786 29.8276H5.18437V13.125H10.3786V29.8276ZM32.4144 0H2.58125C1.15609 0 0 1.12766 0 2.52328V32.4778C0 33.8734 1.15609 35.0011 2.58125 35.0011H32.4089C33.8319 35.0011 35 33.8734 35 32.4778V2.52328C35 1.12766 33.8319 0 32.4089 0L32.4144 0Z" fill="white"/>
</svg>
